<svg aria-roledescription="sequence" role="graphics-document document" viewBox="-50 -50 2970.5 1652" style="max-width: 2970.5px;" xmlns:xlink="http://www.w3.org/1999/xlink" xmlns="http://www.w3.org/2000/svg" width="100%" id="mermaid-diagram-mermaid-m4i0xxd"><g><rect class="actor actor-bottom" ry="3" rx="3" name="Receiver" height="65" width="172" stroke="#666" fill="#eaeaea" y="1526" x="2698.5"></rect><text class="actor actor-box" alignment-baseline="central" dominant-baseline="central" style="text-anchor: middle; font-size: 16px; font-weight: 400;" y="1558.5" x="2784.5"><tspan dy="0" x="2784.5">Клиент-получатель</tspan></text></g><g><rect class="actor actor-bottom" ry="3" rx="3" name="EdgeR" height="65" width="150" stroke="#666" fill="#eaeaea" y="1526" x="2459.5"></rect><text class="actor actor-box" alignment-baseline="central" dominant-baseline="central" style="text-anchor: middle; font-size: 16px; font-weight: 400;" y="1558.5" x="2534.5"><tspan dy="-8" x="2534.5">Edge Service</tspan></text><text class="actor actor-box" alignment-baseline="central" dominant-baseline="central" style="text-anchor: middle; font-size: 16px; font-weight: 400;" y="1558.5" x="2534.5"><tspan dy="8" x="2534.5">(получателей)</tspan></text></g><g><rect class="actor actor-bottom" ry="3" rx="3" name="RedisPS" height="65" width="150" stroke="#666" fill="#eaeaea" y="1526" x="2080.5"></rect><text class="actor actor-box" alignment-baseline="central" dominant-baseline="central" style="text-anchor: middle; font-size: 16px; font-weight: 400;" y="1558.5" x="2155.5"><tspan dy="0" x="2155.5">Redis Pub/Sub</tspan></text></g><g><rect class="actor actor-bottom" ry="3" rx="3" name="NotifMS" height="65" width="165" stroke="#666" fill="#eaeaea" y="1526" x="1865.5"></rect><text class="actor actor-box" alignment-baseline="central" dominant-baseline="central" style="text-anchor: middle; font-size: 16px; font-weight: 400;" y="1558.5" x="1948"><tspan dy="-8" x="1948">Notification Service</tspan></text><text class="actor actor-box" alignment-baseline="central" dominant-baseline="central" style="text-anchor: middle; font-size: 16px; font-weight: 400;" y="1558.5" x="1948"><tspan dy="8" x="1948">(FCM)</tspan></text></g><g><rect class="actor actor-bottom" ry="3" rx="3" name="ChatMS" height="65" width="225" stroke="#666" fill="#eaeaea" y="1526" x="1590.5"></rect><text class="actor actor-box" alignment-baseline="central" dominant-baseline="central" style="text-anchor: middle; font-size: 16px; font-weight: 400;" y="1558.5" x="1703"><tspan dy="-8" x="1703">Chat Service</tspan></text><text class="actor actor-box" alignment-baseline="central" dominant-baseline="central" style="text-anchor: middle; font-size: 16px; font-weight: 400;" y="1558.5" x="1703"><tspan dy="8" x="1703">(Cassandra + Elasticsearch)</tspan></text></g><g><rect class="actor actor-bottom" ry="3" rx="3" name="RedisCache" height="65" width="150" stroke="#666" fill="#eaeaea" y="1526" x="1390.5"></rect><text class="actor actor-box" alignment-baseline="central" dominant-baseline="central" style="text-anchor: middle; font-size: 16px; font-weight: 400;" y="1558.5" x="1465.5"><tspan dy="-8" x="1465.5">Redis Cache</tspan></text><text class="actor actor-box" alignment-baseline="central" dominant-baseline="central" style="text-anchor: middle; font-size: 16px; font-weight: 400;" y="1558.5" x="1465.5"><tspan dy="8" x="1465.5">(discovery)</tspan></text></g><g><rect class="actor actor-bottom" ry="3" rx="3" name="Delivery" height="65" width="150" stroke="#666" fill="#eaeaea" y="1526" x="1145.5"></rect><text class="actor actor-box" alignment-baseline="central" dominant-baseline="central" style="text-anchor: middle; font-size: 16px; font-weight: 400;" y="1558.5" x="1220.5"><tspan dy="0" x="1220.5">Delivery Worker</tspan></text></g><g><rect class="actor actor-bottom" ry="3" rx="3" name="Kafka" height="65" width="150" stroke="#666" fill="#eaeaea" y="1526" x="945.5"></rect><text class="actor actor-box" alignment-baseline="central" dominant-baseline="central" style="text-anchor: middle; font-size: 16px; font-weight: 400;" y="1558.5" x="1020.5"><tspan dy="-8" x="1020.5">Kafka</tspan></text><text class="actor actor-box" alignment-baseline="central" dominant-baseline="central" style="text-anchor: middle; font-size: 16px; font-weight: 400;" y="1558.5" x="1020.5"><tspan dy="8" x="1020.5">messages.out</tspan></text></g><g><rect class="actor actor-bottom" ry="3" rx="3" name="EdgeS" height="65" width="150" stroke="#666" fill="#eaeaea" y="1526" x="670.5"></rect><text class="actor actor-box" alignment-baseline="central" dominant-baseline="central" style="text-anchor: middle; font-size: 16px; font-weight: 400;" y="1558.5" x="745.5"><tspan dy="-8" x="745.5">Edge Service</tspan></text><text class="actor actor-box" alignment-baseline="central" dominant-baseline="central" style="text-anchor: middle; font-size: 16px; font-weight: 400;" y="1558.5" x="745.5"><tspan dy="8" x="745.5">(отправителя)</tspan></text></g><g><rect class="actor actor-bottom" ry="3" rx="3" name="S3" height="65" width="150" stroke="#666" fill="#eaeaea" y="1526" x="470.5"></rect><text class="actor actor-box" alignment-baseline="central" dominant-baseline="central" style="text-anchor: middle; font-size: 16px; font-weight: 400;" y="1558.5" x="545.5"><tspan dy="0" x="545.5">S3 Bucket</tspan></text></g><g><rect class="actor actor-bottom" ry="3" rx="3" name="MediaSvc" height="65" width="150" stroke="#666" fill="#eaeaea" y="1526" x="270.5"></rect><text class="actor actor-box" alignment-baseline="central" dominant-baseline="central" style="text-anchor: middle; font-size: 16px; font-weight: 400;" y="1558.5" x="345.5"><tspan dy="0" x="345.5">Media Service</tspan></text></g><g><rect class="actor actor-bottom" ry="3" rx="3" name="Client" height="65" width="181" stroke="#666" fill="#eaeaea" y="1526" x="0"></rect><text class="actor actor-box" alignment-baseline="central" dominant-baseline="central" style="text-anchor: middle; font-size: 16px; font-weight: 400;" y="1558.5" x="90.5"><tspan dy="0" x="90.5">Клиент-отправитель</tspan></text></g><g><line name="Receiver" stroke="#999" stroke-width="0.5px" class="actor-line 200" y2="1526" x2="2784.5" y1="65" x1="2784.5" id="actor284"></line><g id="root-284"><rect class="actor actor-top" ry="3" rx="3" name="Receiver" height="65" width="172" stroke="#666" fill="#eaeaea" y="0" x="2698.5"></rect><text class="actor actor-box" alignment-baseline="central" dominant-baseline="central" style="text-anchor: middle; font-size: 16px; font-weight: 400;" y="32.5" x="2784.5"><tspan dy="0" x="2784.5">Клиент-получатель</tspan></text></g></g><g><line name="EdgeR" stroke="#999" stroke-width="0.5px" class="actor-line 200" y2="1526" x2="2534.5" y1="65" x1="2534.5" id="actor283"></line><g id="root-283"><rect class="actor actor-top" ry="3" rx="3" name="EdgeR" height="65" width="150" stroke="#666" fill="#eaeaea" y="0" x="2459.5"></rect><text class="actor actor-box" alignment-baseline="central" dominant-baseline="central" style="text-anchor: middle; font-size: 16px; font-weight: 400;" y="32.5" x="2534.5"><tspan dy="-8" x="2534.5">Edge Service</tspan></text><text class="actor actor-box" alignment-baseline="central" dominant-baseline="central" style="text-anchor: middle; font-size: 16px; font-weight: 400;" y="32.5" x="2534.5"><tspan dy="8" x="2534.5">(получателей)</tspan></text></g></g><g><line name="RedisPS" stroke="#999" stroke-width="0.5px" class="actor-line 200" y2="1526" x2="2155.5" y1="65" x1="2155.5" id="actor282"></line><g id="root-282"><rect class="actor actor-top" ry="3" rx="3" name="RedisPS" height="65" width="150" stroke="#666" fill="#eaeaea" y="0" x="2080.5"></rect><text class="actor actor-box" alignment-baseline="central" dominant-baseline="central" style="text-anchor: middle; font-size: 16px; font-weight: 400;" y="32.5" x="2155.5"><tspan dy="0" x="2155.5">Redis Pub/Sub</tspan></text></g></g><g><line name="NotifMS" stroke="#999" stroke-width="0.5px" class="actor-line 200" y2="1526" x2="1948" y1="65" x1="1948" id="actor281"></line><g id="root-281"><rect class="actor actor-top" ry="3" rx="3" name="NotifMS" height="65" width="165" stroke="#666" fill="#eaeaea" y="0" x="1865.5"></rect><text class="actor actor-box" alignment-baseline="central" dominant-baseline="central" style="text-anchor: middle; font-size: 16px; font-weight: 400;" y="32.5" x="1948"><tspan dy="-8" x="1948">Notification Service</tspan></text><text class="actor actor-box" alignment-baseline="central" dominant-baseline="central" style="text-anchor: middle; font-size: 16px; font-weight: 400;" y="32.5" x="1948"><tspan dy="8" x="1948">(FCM)</tspan></text></g></g><g><line name="ChatMS" stroke="#999" stroke-width="0.5px" class="actor-line 200" y2="1526" x2="1703" y1="65" x1="1703" id="actor280"></line><g id="root-280"><rect class="actor actor-top" ry="3" rx="3" name="ChatMS" height="65" width="225" stroke="#666" fill="#eaeaea" y="0" x="1590.5"></rect><text class="actor actor-box" alignment-baseline="central" dominant-baseline="central" style="text-anchor: middle; font-size: 16px; font-weight: 400;" y="32.5" x="1703"><tspan dy="-8" x="1703">Chat Service</tspan></text><text class="actor actor-box" alignment-baseline="central" dominant-baseline="central" style="text-anchor: middle; font-size: 16px; font-weight: 400;" y="32.5" x="1703"><tspan dy="8" x="1703">(Cassandra + Elasticsearch)</tspan></text></g></g><g><line name="RedisCache" stroke="#999" stroke-width="0.5px" class="actor-line 200" y2="1526" x2="1465.5" y1="65" x1="1465.5" id="actor279"></line><g id="root-279"><rect class="actor actor-top" ry="3" rx="3" name="RedisCache" height="65" width="150" stroke="#666" fill="#eaeaea" y="0" x="1390.5"></rect><text class="actor actor-box" alignment-baseline="central" dominant-baseline="central" style="text-anchor: middle; font-size: 16px; font-weight: 400;" y="32.5" x="1465.5"><tspan dy="-8" x="1465.5">Redis Cache</tspan></text><text class="actor actor-box" alignment-baseline="central" dominant-baseline="central" style="text-anchor: middle; font-size: 16px; font-weight: 400;" y="32.5" x="1465.5"><tspan dy="8" x="1465.5">(discovery)</tspan></text></g></g><g><line name="Delivery" stroke="#999" stroke-width="0.5px" class="actor-line 200" y2="1526" x2="1220.5" y1="65" x1="1220.5" id="actor278"></line><g id="root-278"><rect class="actor actor-top" ry="3" rx="3" name="Delivery" height="65" width="150" stroke="#666" fill="#eaeaea" y="0" x="1145.5"></rect><text class="actor actor-box" alignment-baseline="central" dominant-baseline="central" style="text-anchor: middle; font-size: 16px; font-weight: 400;" y="32.5" x="1220.5"><tspan dy="0" x="1220.5">Delivery Worker</tspan></text></g></g><g><line name="Kafka" stroke="#999" stroke-width="0.5px" class="actor-line 200" y2="1526" x2="1020.5" y1="65" x1="1020.5" id="actor277"></line><g id="root-277"><rect class="actor actor-top" ry="3" rx="3" name="Kafka" height="65" width="150" stroke="#666" fill="#eaeaea" y="0" x="945.5"></rect><text class="actor actor-box" alignment-baseline="central" dominant-baseline="central" style="text-anchor: middle; font-size: 16px; font-weight: 400;" y="32.5" x="1020.5"><tspan dy="-8" x="1020.5">Kafka</tspan></text><text class="actor actor-box" alignment-baseline="central" dominant-baseline="central" style="text-anchor: middle; font-size: 16px; font-weight: 400;" y="32.5" x="1020.5"><tspan dy="8" x="1020.5">messages.out</tspan></text></g></g><g><line name="EdgeS" stroke="#999" stroke-width="0.5px" class="actor-line 200" y2="1526" x2="745.5" y1="65" x1="745.5" id="actor276"></line><g id="root-276"><rect class="actor actor-top" ry="3" rx="3" name="EdgeS" height="65" width="150" stroke="#666" fill="#eaeaea" y="0" x="670.5"></rect><text class="actor actor-box" alignment-baseline="central" dominant-baseline="central" style="text-anchor: middle; font-size: 16px; font-weight: 400;" y="32.5" x="745.5"><tspan dy="-8" x="745.5">Edge Service</tspan></text><text class="actor actor-box" alignment-baseline="central" dominant-baseline="central" style="text-anchor: middle; font-size: 16px; font-weight: 400;" y="32.5" x="745.5"><tspan dy="8" x="745.5">(отправителя)</tspan></text></g></g><g><line name="S3" stroke="#999" stroke-width="0.5px" class="actor-line 200" y2="1526" x2="545.5" y1="65" x1="545.5" id="actor275"></line><g id="root-275"><rect class="actor actor-top" ry="3" rx="3" name="S3" height="65" width="150" stroke="#666" fill="#eaeaea" y="0" x="470.5"></rect><text class="actor actor-box" alignment-baseline="central" dominant-baseline="central" style="text-anchor: middle; font-size: 16px; font-weight: 400;" y="32.5" x="545.5"><tspan dy="0" x="545.5">S3 Bucket</tspan></text></g></g><g><line name="MediaSvc" stroke="#999" stroke-width="0.5px" class="actor-line 200" y2="1526" x2="345.5" y1="65" x1="345.5" id="actor274"></line><g id="root-274"><rect class="actor actor-top" ry="3" rx="3" name="MediaSvc" height="65" width="150" stroke="#666" fill="#eaeaea" y="0" x="270.5"></rect><text class="actor actor-box" alignment-baseline="central" dominant-baseline="central" style="text-anchor: middle; font-size: 16px; font-weight: 400;" y="32.5" x="345.5"><tspan dy="0" x="345.5">Media Service</tspan></text></g></g><g><line name="Client" stroke="#999" stroke-width="0.5px" class="actor-line 200" y2="1526" x2="90.5" y1="65" x1="90.5" id="actor273"></line><g id="root-273"><rect class="actor actor-top" ry="3" rx="3" name="Client" height="65" width="181" stroke="#666" fill="#eaeaea" y="0" x="0"></rect><text class="actor actor-box" alignment-baseline="central" dominant-baseline="central" style="text-anchor: middle; font-size: 16px; font-weight: 400;" y="32.5" x="90.5"><tspan dy="0" x="90.5">Клиент-отправитель</tspan></text></g></g><style>#mermaid-diagram-mermaid-m4i0xxd{font-family:"trebuchet ms",verdana,arial,sans-serif;font-size:16px;fill:#000000;}@keyframes edge-animation-frame{from{stroke-dashoffset:0;}}@keyframes dash{to{stroke-dashoffset:0;}}#mermaid-diagram-mermaid-m4i0xxd .edge-animation-slow{stroke-dasharray:9,5!important;stroke-dashoffset:900;animation:dash 50s linear infinite;stroke-linecap:round;}#mermaid-diagram-mermaid-m4i0xxd .edge-animation-fast{stroke-dasharray:9,5!important;stroke-dashoffset:900;animation:dash 20s linear infinite;stroke-linecap:round;}#mermaid-diagram-mermaid-m4i0xxd .error-icon{fill:hsl(220.5882352941, 100%, 98.3333333333%);}#mermaid-diagram-mermaid-m4i0xxd .error-text{fill:#000000;stroke:#000000;}#mermaid-diagram-mermaid-m4i0xxd .edge-thickness-normal{stroke-width:1px;}#mermaid-diagram-mermaid-m4i0xxd .edge-thickness-thick{stroke-width:3.5px;}#mermaid-diagram-mermaid-m4i0xxd .edge-pattern-solid{stroke-dasharray:0;}#mermaid-diagram-mermaid-m4i0xxd .edge-thickness-invisible{stroke-width:0;fill:none;}#mermaid-diagram-mermaid-m4i0xxd .edge-pattern-dashed{stroke-dasharray:3;}#mermaid-diagram-mermaid-m4i0xxd .edge-pattern-dotted{stroke-dasharray:2;}#mermaid-diagram-mermaid-m4i0xxd .marker{fill:#0b0b0b;stroke:#0b0b0b;}#mermaid-diagram-mermaid-m4i0xxd .marker.cross{stroke:#0b0b0b;}#mermaid-diagram-mermaid-m4i0xxd svg{font-family:"trebuchet ms",verdana,arial,sans-serif;font-size:16px;}#mermaid-diagram-mermaid-m4i0xxd p{margin:0;}#mermaid-diagram-mermaid-m4i0xxd .actor{stroke:hsl(40.5882352941, 60%, 83.3333333333%);fill:#fff4dd;}#mermaid-diagram-mermaid-m4i0xxd text.actor&gt;tspan{fill:#000000;stroke:none;}#mermaid-diagram-mermaid-m4i0xxd .actor-line{stroke:hsl(40.5882352941, 60%, 83.3333333333%);}#mermaid-diagram-mermaid-m4i0xxd .messageLine0{stroke-width:1.5;stroke-dasharray:none;stroke:#000000;}#mermaid-diagram-mermaid-m4i0xxd .messageLine1{stroke-width:1.5;stroke-dasharray:2,2;stroke:#000000;}#mermaid-diagram-mermaid-m4i0xxd #arrowhead path{fill:#000000;stroke:#000000;}#mermaid-diagram-mermaid-m4i0xxd .sequenceNumber{fill:#000000;}#mermaid-diagram-mermaid-m4i0xxd #sequencenumber{fill:#000000;}#mermaid-diagram-mermaid-m4i0xxd #crosshead path{fill:#000000;stroke:#000000;}#mermaid-diagram-mermaid-m4i0xxd .messageText{fill:#000000;stroke:none;}#mermaid-diagram-mermaid-m4i0xxd .labelBox{stroke:hsl(40.5882352941, 60%, 83.3333333333%);fill:#fff4dd;}#mermaid-diagram-mermaid-m4i0xxd .labelText,#mermaid-diagram-mermaid-m4i0xxd .labelText&gt;tspan{fill:#000000;stroke:none;}#mermaid-diagram-mermaid-m4i0xxd .loopText,#mermaid-diagram-mermaid-m4i0xxd .loopText&gt;tspan{fill:#000000;stroke:none;}#mermaid-diagram-mermaid-m4i0xxd .loopLine{stroke-width:2px;stroke-dasharray:2,2;stroke:hsl(40.5882352941, 60%, 83.3333333333%);fill:hsl(40.5882352941, 60%, 83.3333333333%);}#mermaid-diagram-mermaid-m4i0xxd .note{stroke:hsl(52.6829268293, 60%, 73.9215686275%);fill:#fff5ad;}#mermaid-diagram-mermaid-m4i0xxd .noteText,#mermaid-diagram-mermaid-m4i0xxd .noteText&gt;tspan{fill:#000000;stroke:none;}#mermaid-diagram-mermaid-m4i0xxd .activation0{fill:hsl(-79.4117647059, 100%, 93.3333333333%);stroke:#444444;}#mermaid-diagram-mermaid-m4i0xxd .activation1{fill:hsl(-79.4117647059, 100%, 93.3333333333%);stroke:#444444;}#mermaid-diagram-mermaid-m4i0xxd .activation2{fill:hsl(-79.4117647059, 100%, 93.3333333333%);stroke:#444444;}#mermaid-diagram-mermaid-m4i0xxd .actorPopupMenu{position:absolute;}#mermaid-diagram-mermaid-m4i0xxd .actorPopupMenuPanel{position:absolute;fill:#fff4dd;box-shadow:0px 8px 16px 0px rgba(0,0,0,0.2);filter:drop-shadow(3px 5px 2px rgb(0 0 0 / 0.4));}#mermaid-diagram-mermaid-m4i0xxd .actor-man line{stroke:hsl(40.5882352941, 60%, 83.3333333333%);fill:#fff4dd;}#mermaid-diagram-mermaid-m4i0xxd .actor-man circle,#mermaid-diagram-mermaid-m4i0xxd line{stroke:hsl(40.5882352941, 60%, 83.3333333333%);fill:#fff4dd;stroke-width:2px;}#mermaid-diagram-mermaid-m4i0xxd :root{--mermaid-font-family:"trebuchet ms",verdana,arial,sans-serif;}</style><g></g><defs><symbol height="24" width="24" id="computer"><path d="M2 2v13h20v-13h-20zm18 11h-16v-9h16v9zm-10.228 6l.466-1h3.524l.467 1h-4.457zm14.228 3h-24l2-6h2.104l-1.33 4h18.45l-1.297-4h2.073l2 6zm-5-10h-14v-7h14v7z" transform="scale(.5)"></path></symbol></defs><defs><symbol clip-rule="evenodd" fill-rule="evenodd" id="database"><path d="M12.258.001l.256.004.255.005.253.008.251.01.249.012.247.015.246.016.242.019.241.02.239.023.236.024.233.027.231.028.229.031.225.032.223.034.22.036.217.038.214.04.211.041.208.043.205.045.201.046.198.048.194.05.191.051.187.053.183.054.18.056.175.057.172.059.168.06.163.061.16.063.155.064.15.066.074.033.073.033.071.034.07.034.069.035.068.035.067.035.066.035.064.036.064.036.062.036.06.036.06.037.058.037.058.037.055.038.055.038.053.038.052.038.051.039.05.039.048.039.047.039.045.04.044.04.043.04.041.04.04.041.039.041.037.041.036.041.034.041.033.042.032.042.03.042.029.042.027.042.026.043.024.043.023.043.021.043.02.043.018.044.017.043.015.044.013.044.012.044.011.045.009.044.007.045.006.045.004.045.002.045.001.045v17l-.001.045-.002.045-.004.045-.006.045-.007.045-.009.044-.011.045-.012.044-.013.044-.015.044-.017.043-.018.044-.02.043-.021.043-.023.043-.024.043-.026.043-.027.042-.029.042-.03.042-.032.042-.033.042-.034.041-.036.041-.037.041-.039.041-.04.041-.041.04-.043.04-.044.04-.045.04-.047.039-.048.039-.05.039-.051.039-.052.038-.053.038-.055.038-.055.038-.058.037-.058.037-.06.037-.06.036-.062.036-.064.036-.064.036-.066.035-.067.035-.068.035-.069.035-.07.034-.071.034-.073.033-.074.033-.15.066-.155.064-.16.063-.163.061-.168.06-.172.059-.175.057-.18.056-.183.054-.187.053-.191.051-.194.05-.198.048-.201.046-.205.045-.208.043-.211.041-.214.04-.217.038-.22.036-.223.034-.225.032-.229.031-.231.028-.233.027-.236.024-.239.023-.241.02-.242.019-.246.016-.247.015-.249.012-.251.01-.253.008-.255.005-.256.004-.258.001-.258-.001-.256-.004-.255-.005-.253-.008-.251-.01-.249-.012-.247-.015-.245-.016-.243-.019-.241-.02-.238-.023-.236-.024-.234-.027-.231-.028-.228-.031-.226-.032-.223-.034-.22-.036-.217-.038-.214-.04-.211-.041-.208-.043-.204-.045-.201-.046-.198-.048-.195-.05-.19-.051-.187-.053-.184-.054-.179-.056-.176-.057-.172-.059-.167-.06-.164-.061-.159-.063-.155-.064-.151-.066-.074-.033-.072-.033-.072-.034-.07-.034-.069-.035-.068-.035-.067-.035-.066-.035-.064-.036-.063-.036-.062-.036-.061-.036-.06-.037-.058-.037-.057-.037-.056-.038-.055-.038-.053-.038-.052-.038-.051-.039-.049-.039-.049-.039-.046-.039-.046-.04-.044-.04-.043-.04-.041-.04-.04-.041-.039-.041-.037-.041-.036-.041-.034-.041-.033-.042-.032-.042-.03-.042-.029-.042-.027-.042-.026-.043-.024-.043-.023-.043-.021-.043-.02-.043-.018-.044-.017-.043-.015-.044-.013-.044-.012-.044-.011-.045-.009-.044-.007-.045-.006-.045-.004-.045-.002-.045-.001-.045v-17l.001-.045.002-.045.004-.045.006-.045.007-.045.009-.044.011-.045.012-.044.013-.044.015-.044.017-.043.018-.044.02-.043.021-.043.023-.043.024-.043.026-.043.027-.042.029-.042.03-.042.032-.042.033-.042.034-.041.036-.041.037-.041.039-.041.04-.041.041-.04.043-.04.044-.04.046-.04.046-.039.049-.039.049-.039.051-.039.052-.038.053-.038.055-.038.056-.038.057-.037.058-.037.06-.037.061-.036.062-.036.063-.036.064-.036.066-.035.067-.035.068-.035.069-.035.07-.034.072-.034.072-.033.074-.033.151-.066.155-.064.159-.063.164-.061.167-.06.172-.059.176-.057.179-.056.184-.054.187-.053.19-.051.195-.05.198-.048.201-.046.204-.045.208-.043.211-.041.214-.04.217-.038.22-.036.223-.034.226-.032.228-.031.231-.028.234-.027.236-.024.238-.023.241-.02.243-.019.245-.016.247-.015.249-.012.251-.01.253-.008.255-.005.256-.004.258-.001.258.001zm-9.258 20.499v.01l.001.021.003.021.004.022.005.021.006.022.007.022.009.023.01.022.011.023.012.023.013.023.015.023.016.024.017.023.018.024.019.024.021.024.022.025.023.024.024.025.052.049.056.05.061.051.066.051.07.051.075.051.079.052.084.052.088.052.092.052.097.052.102.051.105.052.11.052.114.051.119.051.123.051.127.05.131.05.135.05.139.048.144.049.147.047.152.047.155.047.16.045.163.045.167.043.171.043.176.041.178.041.183.039.187.039.19.037.194.035.197.035.202.033.204.031.209.03.212.029.216.027.219.025.222.024.226.021.23.02.233.018.236.016.24.015.243.012.246.01.249.008.253.005.256.004.259.001.26-.001.257-.004.254-.005.25-.008.247-.011.244-.012.241-.014.237-.016.233-.018.231-.021.226-.021.224-.024.22-.026.216-.027.212-.028.21-.031.205-.031.202-.034.198-.034.194-.036.191-.037.187-.039.183-.04.179-.04.175-.042.172-.043.168-.044.163-.045.16-.046.155-.046.152-.047.148-.048.143-.049.139-.049.136-.05.131-.05.126-.05.123-.051.118-.052.114-.051.11-.052.106-.052.101-.052.096-.052.092-.052.088-.053.083-.051.079-.052.074-.052.07-.051.065-.051.06-.051.056-.05.051-.05.023-.024.023-.025.021-.024.02-.024.019-.024.018-.024.017-.024.015-.023.014-.024.013-.023.012-.023.01-.023.01-.022.008-.022.006-.022.006-.022.004-.022.004-.021.001-.021.001-.021v-4.127l-.077.055-.08.053-.083.054-.085.053-.087.052-.09.052-.093.051-.095.05-.097.05-.1.049-.102.049-.105.048-.106.047-.109.047-.111.046-.114.045-.115.045-.118.044-.12.043-.122.042-.124.042-.126.041-.128.04-.13.04-.132.038-.134.038-.135.037-.138.037-.139.035-.142.035-.143.034-.144.033-.147.032-.148.031-.15.03-.151.03-.153.029-.154.027-.156.027-.158.026-.159.025-.161.024-.162.023-.163.022-.165.021-.166.02-.167.019-.169.018-.169.017-.171.016-.173.015-.173.014-.175.013-.175.012-.177.011-.178.01-.179.008-.179.008-.181.006-.182.005-.182.004-.184.003-.184.002h-.37l-.184-.002-.184-.003-.182-.004-.182-.005-.181-.006-.179-.008-.179-.008-.178-.01-.176-.011-.176-.012-.175-.013-.173-.014-.172-.015-.171-.016-.17-.017-.169-.018-.167-.019-.166-.02-.165-.021-.163-.022-.162-.023-.161-.024-.159-.025-.157-.026-.156-.027-.155-.027-.153-.029-.151-.03-.15-.03-.148-.031-.146-.032-.145-.033-.143-.034-.141-.035-.14-.035-.137-.037-.136-.037-.134-.038-.132-.038-.13-.04-.128-.04-.126-.041-.124-.042-.122-.042-.12-.044-.117-.043-.116-.045-.113-.045-.112-.046-.109-.047-.106-.047-.105-.048-.102-.049-.1-.049-.097-.05-.095-.05-.093-.052-.09-.051-.087-.052-.085-.053-.083-.054-.08-.054-.077-.054v4.127zm0-5.654v.011l.001.021.003.021.004.021.005.022.006.022.007.022.009.022.01.022.011.023.012.023.013.023.015.024.016.023.017.024.018.024.019.024.021.024.022.024.023.025.024.024.052.05.056.05.061.05.066.051.07.051.075.052.079.051.084.052.088.052.092.052.097.052.102.052.105.052.11.051.114.051.119.052.123.05.127.051.131.05.135.049.139.049.144.048.147.048.152.047.155.046.16.045.163.045.167.044.171.042.176.042.178.04.183.04.187.038.19.037.194.036.197.034.202.033.204.032.209.03.212.028.216.027.219.025.222.024.226.022.23.02.233.018.236.016.24.014.243.012.246.01.249.008.253.006.256.003.259.001.26-.001.257-.003.254-.006.25-.008.247-.01.244-.012.241-.015.237-.016.233-.018.231-.02.226-.022.224-.024.22-.025.216-.027.212-.029.21-.03.205-.032.202-.033.198-.035.194-.036.191-.037.187-.039.183-.039.179-.041.175-.042.172-.043.168-.044.163-.045.16-.045.155-.047.152-.047.148-.048.143-.048.139-.05.136-.049.131-.05.126-.051.123-.051.118-.051.114-.052.11-.052.106-.052.101-.052.096-.052.092-.052.088-.052.083-.052.079-.052.074-.051.07-.052.065-.051.06-.05.056-.051.051-.049.023-.025.023-.024.021-.025.02-.024.019-.024.018-.024.017-.024.015-.023.014-.023.013-.024.012-.022.01-.023.01-.023.008-.022.006-.022.006-.022.004-.021.004-.022.001-.021.001-.021v-4.139l-.077.054-.08.054-.083.054-.085.052-.087.053-.09.051-.093.051-.095.051-.097.05-.1.049-.102.049-.105.048-.106.047-.109.047-.111.046-.114.045-.115.044-.118.044-.12.044-.122.042-.124.042-.126.041-.128.04-.13.039-.132.039-.134.038-.135.037-.138.036-.139.036-.142.035-.143.033-.144.033-.147.033-.148.031-.15.03-.151.03-.153.028-.154.028-.156.027-.158.026-.159.025-.161.024-.162.023-.163.022-.165.021-.166.02-.167.019-.169.018-.169.017-.171.016-.173.015-.173.014-.175.013-.175.012-.177.011-.178.009-.179.009-.179.007-.181.007-.182.005-.182.004-.184.003-.184.002h-.37l-.184-.002-.184-.003-.182-.004-.182-.005-.181-.007-.179-.007-.179-.009-.178-.009-.176-.011-.176-.012-.175-.013-.173-.014-.172-.015-.171-.016-.17-.017-.169-.018-.167-.019-.166-.02-.165-.021-.163-.022-.162-.023-.161-.024-.159-.025-.157-.026-.156-.027-.155-.028-.153-.028-.151-.03-.15-.03-.148-.031-.146-.033-.145-.033-.143-.033-.141-.035-.14-.036-.137-.036-.136-.037-.134-.038-.132-.039-.13-.039-.128-.04-.126-.041-.124-.042-.122-.043-.12-.043-.117-.044-.116-.044-.113-.046-.112-.046-.109-.046-.106-.047-.105-.048-.102-.049-.1-.049-.097-.05-.095-.051-.093-.051-.09-.051-.087-.053-.085-.052-.083-.054-.08-.054-.077-.054v4.139zm0-5.666v.011l.001.02.003.022.004.021.005.022.006.021.007.022.009.023.01.022.011.023.012.023.013.023.015.023.016.024.017.024.018.023.019.024.021.025.022.024.023.024.024.025.052.05.056.05.061.05.066.051.07.051.075.052.079.051.084.052.088.052.092.052.097.052.102.052.105.051.11.052.114.051.119.051.123.051.127.05.131.05.135.05.139.049.144.048.147.048.152.047.155.046.16.045.163.045.167.043.171.043.176.042.178.04.183.04.187.038.19.037.194.036.197.034.202.033.204.032.209.03.212.028.216.027.219.025.222.024.226.021.23.02.233.018.236.017.24.014.243.012.246.01.249.008.253.006.256.003.259.001.26-.001.257-.003.254-.006.25-.008.247-.01.244-.013.241-.014.237-.016.233-.018.231-.02.226-.022.224-.024.22-.025.216-.027.212-.029.21-.03.205-.032.202-.033.198-.035.194-.036.191-.037.187-.039.183-.039.179-.041.175-.042.172-.043.168-.044.163-.045.16-.045.155-.047.152-.047.148-.048.143-.049.139-.049.136-.049.131-.051.126-.05.123-.051.118-.052.114-.051.11-.052.106-.052.101-.052.096-.052.092-.052.088-.052.083-.052.079-.052.074-.052.07-.051.065-.051.06-.051.056-.05.051-.049.023-.025.023-.025.021-.024.02-.024.019-.024.018-.024.017-.024.015-.023.014-.024.013-.023.012-.023.01-.022.01-.023.008-.022.006-.022.006-.022.004-.022.004-.021.001-.021.001-.021v-4.153l-.077.054-.08.054-.083.053-.085.053-.087.053-.09.051-.093.051-.095.051-.097.05-.1.049-.102.048-.105.048-.106.048-.109.046-.111.046-.114.046-.115.044-.118.044-.12.043-.122.043-.124.042-.126.041-.128.04-.13.039-.132.039-.134.038-.135.037-.138.036-.139.036-.142.034-.143.034-.144.033-.147.032-.148.032-.15.03-.151.03-.153.028-.154.028-.156.027-.158.026-.159.024-.161.024-.162.023-.163.023-.165.021-.166.02-.167.019-.169.018-.169.017-.171.016-.173.015-.173.014-.175.013-.175.012-.177.01-.178.01-.179.009-.179.007-.181.006-.182.006-.182.004-.184.003-.184.001-.185.001-.185-.001-.184-.001-.184-.003-.182-.004-.182-.006-.181-.006-.179-.007-.179-.009-.178-.01-.176-.01-.176-.012-.175-.013-.173-.014-.172-.015-.171-.016-.17-.017-.169-.018-.167-.019-.166-.02-.165-.021-.163-.023-.162-.023-.161-.024-.159-.024-.157-.026-.156-.027-.155-.028-.153-.028-.151-.03-.15-.03-.148-.032-.146-.032-.145-.033-.143-.034-.141-.034-.14-.036-.137-.036-.136-.037-.134-.038-.132-.039-.13-.039-.128-.041-.126-.041-.124-.041-.122-.043-.12-.043-.117-.044-.116-.044-.113-.046-.112-.046-.109-.046-.106-.048-.105-.048-.102-.048-.1-.05-.097-.049-.095-.051-.093-.051-.09-.052-.087-.052-.085-.053-.083-.053-.08-.054-.077-.054v4.153zm8.74-8.179l-.257.004-.254.005-.25.008-.247.011-.244.012-.241.014-.237.016-.233.018-.231.021-.226.022-.224.023-.22.026-.216.027-.212.028-.21.031-.205.032-.202.033-.198.034-.194.036-.191.038-.187.038-.183.04-.179.041-.175.042-.172.043-.168.043-.163.045-.16.046-.155.046-.152.048-.148.048-.143.048-.139.049-.136.05-.131.05-.126.051-.123.051-.118.051-.114.052-.11.052-.106.052-.101.052-.096.052-.092.052-.088.052-.083.052-.079.052-.074.051-.07.052-.065.051-.06.05-.056.05-.051.05-.023.025-.023.024-.021.024-.02.025-.019.024-.018.024-.017.023-.015.024-.014.023-.013.023-.012.023-.01.023-.01.022-.008.022-.006.023-.006.021-.004.022-.004.021-.001.021-.001.021.001.021.001.021.004.021.004.022.006.021.006.023.008.022.01.022.01.023.012.023.013.023.014.023.015.024.017.023.018.024.019.024.02.025.021.024.023.024.023.025.051.05.056.05.06.05.065.051.07.052.074.051.079.052.083.052.088.052.092.052.096.052.101.052.106.052.11.052.114.052.118.051.123.051.126.051.131.05.136.05.139.049.143.048.148.048.152.048.155.046.16.046.163.045.168.043.172.043.175.042.179.041.183.04.187.038.191.038.194.036.198.034.202.033.205.032.21.031.212.028.216.027.22.026.224.023.226.022.231.021.233.018.237.016.241.014.244.012.247.011.25.008.254.005.257.004.26.001.26-.001.257-.004.254-.005.25-.008.247-.011.244-.012.241-.014.237-.016.233-.018.231-.021.226-.022.224-.023.22-.026.216-.027.212-.028.21-.031.205-.032.202-.033.198-.034.194-.036.191-.038.187-.038.183-.04.179-.041.175-.042.172-.043.168-.043.163-.045.16-.046.155-.046.152-.048.148-.048.143-.048.139-.049.136-.05.131-.05.126-.051.123-.051.118-.051.114-.052.11-.052.106-.052.101-.052.096-.052.092-.052.088-.052.083-.052.079-.052.074-.051.07-.052.065-.051.06-.05.056-.05.051-.05.023-.025.023-.024.021-.024.02-.025.019-.024.018-.024.017-.023.015-.024.014-.023.013-.023.012-.023.01-.023.01-.022.008-.022.006-.023.006-.021.004-.022.004-.021.001-.021.001-.021-.001-.021-.001-.021-.004-.021-.004-.022-.006-.021-.006-.023-.008-.022-.01-.022-.01-.023-.012-.023-.013-.023-.014-.023-.015-.024-.017-.023-.018-.024-.019-.024-.02-.025-.021-.024-.023-.024-.023-.025-.051-.05-.056-.05-.06-.05-.065-.051-.07-.052-.074-.051-.079-.052-.083-.052-.088-.052-.092-.052-.096-.052-.101-.052-.106-.052-.11-.052-.114-.052-.118-.051-.123-.051-.126-.051-.131-.05-.136-.05-.139-.049-.143-.048-.148-.048-.152-.048-.155-.046-.16-.046-.163-.045-.168-.043-.172-.043-.175-.042-.179-.041-.183-.04-.187-.038-.191-.038-.194-.036-.198-.034-.202-.033-.205-.032-.21-.031-.212-.028-.216-.027-.22-.026-.224-.023-.226-.022-.231-.021-.233-.018-.237-.016-.241-.014-.244-.012-.247-.011-.25-.008-.254-.005-.257-.004-.26-.001-.26.001z" transform="scale(.5)"></path></symbol></defs><defs><symbol height="24" width="24" id="clock"><path d="M12 2c5.514 0 10 4.486 10 10s-4.486 10-10 10-10-4.486-10-10 4.486-10 10-10zm0-2c-6.627 0-12 5.373-12 12s5.373 12 12 12 12-5.373 12-12-5.373-12-12-12zm5.848 12.459c.202.038.202.333.001.372-1.907.361-6.045 1.111-6.547 1.111-.719 0-1.301-.582-1.301-1.301 0-.512.77-5.447 1.125-7.445.034-.192.312-.181.343.014l.985 6.238 5.394 1.011z" transform="scale(.5)"></path></symbol></defs><defs><marker orient="auto-start-reverse" markerHeight="12" markerWidth="12" markerUnits="userSpaceOnUse" refY="5" refX="7.9" id="arrowhead"><path d="M -1 0 L 10 5 L 0 10 z"></path></marker></defs><defs><marker refY="4.5" refX="4" orient="auto" markerHeight="8" markerWidth="15" id="crosshead"><path style="stroke-dasharray: 0, 0;" d="M 1,2 L 6,7 M 6,2 L 1,7" stroke-width="1pt" stroke="#000000" fill="none"></path></marker></defs><defs><marker orient="auto" markerHeight="28" markerWidth="20" refY="7" refX="15.5" id="filled-head"><path d="M 18,7 L9,13 L14,7 L9,1 Z"></path></marker></defs><defs><marker orient="auto" markerHeight="40" markerWidth="60" refY="15" refX="15" id="sequencenumber"><circle r="6" cy="15" cx="15"></circle></marker></defs><g><line class="loopLine" y2="75" x2="556.5" y1="75" x1="79.5"></line><line class="loopLine" y2="320" x2="556.5" y1="75" x1="556.5"></line><line class="loopLine" y2="320" x2="556.5" y1="320" x1="79.5"></line><line class="loopLine" y2="320" x2="79.5" y1="75" x1="79.5"></line><polygon class="labelBox" points="79.5,75 129.5,75 129.5,88 121.1,95 79.5,95"></polygon><text class="labelText" style="font-size: 16px; font-weight: 400;" alignment-baseline="middle" dominant-baseline="middle" text-anchor="middle" y="88" x="105">opt</text><text class="loopText" style="font-size: 16px; font-weight: 400;" text-anchor="middle" y="93" x="343"><tspan x="343">[Есть медиа-файлы]</tspan></text></g><g><rect class="activation0" height="180" width="10" stroke="#666" fill="#EDF2AE" y="390" x="740.5"></rect></g><g><rect class="activation0" height="488" width="10" stroke="#666" fill="#EDF2AE" y="622" x="1215.5"></rect></g><g><line class="loopLine" y2="775" x2="2166.5" y1="775" x1="1205.5"></line><line class="loopLine" y2="870" x2="2166.5" y1="775" x1="2166.5"></line><line class="loopLine" y2="870" x2="2166.5" y1="870" x1="1205.5"></line><line class="loopLine" y2="870" x2="1205.5" y1="775" x1="1205.5"></line><polygon class="labelBox" points="1205.5,775 1255.5,775 1255.5,788 1247.1,795 1205.5,795"></polygon><text class="labelText" style="font-size: 16px; font-weight: 400;" alignment-baseline="middle" dominant-baseline="middle" text-anchor="middle" y="788" x="1231">loop</text><text class="loopText" style="font-size: 16px; font-weight: 400;" text-anchor="middle" y="793" x="1711"><tspan x="1711">[по каждому edgeId]</tspan></text></g><g><line class="loopLine" y2="630" x2="2176.5" y1="630" x1="1195.5"></line><line class="loopLine" y2="1110" x2="2176.5" y1="630" x1="2176.5"></line><line class="loopLine" y2="1110" x2="2176.5" y1="1110" x1="1195.5"></line><line class="loopLine" y2="1110" x2="1195.5" y1="630" x1="1195.5"></line><line style="stroke-dasharray: 3, 3;" class="loopLine" y2="885" x2="2176.5" y1="885" x1="1195.5"></line><line style="stroke-dasharray: 3, 3;" class="loopLine" y2="1000" x2="2176.5" y1="1000" x1="1195.5"></line><polygon class="labelBox" points="1195.5,630 1245.5,630 1245.5,643 1237.1,650 1195.5,650"></polygon><text class="labelText" style="font-size: 16px; font-weight: 400;" alignment-baseline="middle" dominant-baseline="middle" text-anchor="middle" y="643" x="1221">par</text><text class="loopText" style="font-size: 16px; font-weight: 400;" text-anchor="middle" y="648" x="1711"><tspan x="1711">[Асинхронные действия Delivery Worker]</tspan></text><text class="loopText" style="font-size: 16px; font-weight: 400;" text-anchor="middle" y="903" x="1686">[Сохранение]</text><text class="loopText" style="font-size: 16px; font-weight: 400;" text-anchor="middle" y="1018" x="1686">[Push-уведомления]</text></g><g><rect class="activation0" height="346" width="10" stroke="#666" fill="#EDF2AE" y="1160" x="2529.5"></rect></g><g><rect class="note" height="56" width="272" stroke="#666" fill="#EDF2AE" y="1250" x="2398.5"></rect><text dy="1em" class="noteText" style="font-size: 16px; font-weight: 400;" alignment-baseline="middle" dominant-baseline="middle" text-anchor="middle" y="1255" x="2535"><tspan x="2535">Исключаем сессии отправителя</tspan></text><text dy="1em" class="noteText" style="font-size: 16px; font-weight: 400;" alignment-baseline="middle" dominant-baseline="middle" text-anchor="middle" y="1273" x="2535"><tspan x="2535">(фильтр senderSessions)</tspan></text></g><g><line class="loopLine" y2="1381" x2="2795.5" y1="1381" x1="2519.5"></line><line class="loopLine" y2="1496" x2="2795.5" y1="1381" x1="2795.5"></line><line class="loopLine" y2="1496" x2="2795.5" y1="1496" x1="2519.5"></line><line class="loopLine" y2="1496" x2="2519.5" y1="1381" x1="2519.5"></line><polygon class="labelBox" points="2519.5,1381 2569.5,1381 2569.5,1394 2561.1,1401 2519.5,1401"></polygon><text class="labelText" style="font-size: 16px; font-weight: 400;" alignment-baseline="middle" dominant-baseline="middle" text-anchor="middle" y="1394" x="2545">loop</text><text class="loopText" style="font-size: 16px; font-weight: 400;" text-anchor="middle" y="1399" x="2682.5"><tspan x="2682.5">[по сессиям чата]</tspan></text></g><g><line class="loopLine" y2="1316" x2="2805.5" y1="1316" x1="2509.5"></line><line class="loopLine" y2="1506" x2="2805.5" y1="1316" x1="2805.5"></line><line class="loopLine" y2="1506" x2="2805.5" y1="1506" x1="2509.5"></line><line class="loopLine" y2="1506" x2="2509.5" y1="1316" x1="2509.5"></line><polygon class="labelBox" points="2509.5,1316 2559.5,1316 2559.5,1329 2551.1,1336 2509.5,1336"></polygon><text class="labelText" style="font-size: 16px; font-weight: 400;" alignment-baseline="middle" dominant-baseline="middle" text-anchor="middle" y="1329" x="2535">par</text><text class="loopText" style="font-size: 16px; font-weight: 400;" text-anchor="middle" y="1334" x="2682.5"><tspan x="2682.5">[Доставка по</tspan></text><text class="loopText" style="font-size: 16px; font-weight: 400;" text-anchor="middle" y="1352" x="2682.5"><tspan x="2682.5">WebSocket]</tspan></text></g><text dy="1em" class="messageText" style="font-size: 16px; font-weight: 400;" alignment-baseline="middle" dominant-baseline="middle" text-anchor="middle" y="125" x="217">POST /upload-request</text><line style="fill: none;" marker-end="url(#arrowhead)" stroke="none" stroke-width="2" class="messageLine0" y2="160" x2="341.5" y1="160" x1="91.5"></line><text dy="1em" class="messageText" style="font-size: 16px; font-weight: 400;" alignment-baseline="middle" dominant-baseline="middle" text-anchor="middle" y="175" x="220">presigned URL + mediaId</text><line marker-end="url(#arrowhead)" style="stroke-dasharray: 3, 3; fill: none;" stroke="none" stroke-width="2" class="messageLine1" y2="210" x2="94.5" y1="210" x1="344.5"></line><text dy="1em" class="messageText" style="font-size: 16px; font-weight: 400;" alignment-baseline="middle" dominant-baseline="middle" text-anchor="middle" y="225" x="317">PUT файл по URL</text><line style="fill: none;" marker-end="url(#arrowhead)" stroke="none" stroke-width="2" class="messageLine0" y2="260" x2="541.5" y1="260" x1="91.5"></line><text dy="1em" class="messageText" style="font-size: 16px; font-weight: 400;" alignment-baseline="middle" dominant-baseline="middle" text-anchor="middle" y="275" x="320">200 OK</text><line marker-end="url(#arrowhead)" style="stroke-dasharray: 3, 3; fill: none;" stroke="none" stroke-width="2" class="messageLine1" y2="310" x2="94.5" y1="310" x1="544.5"></line><text dy="1em" class="messageText" style="font-size: 16px; font-weight: 400;" alignment-baseline="middle" dominant-baseline="middle" text-anchor="middle" y="335" x="417">WS → MessageEnvelope</text><text dy="1em" class="messageText" style="font-size: 16px; font-weight: 400;" alignment-baseline="middle" dominant-baseline="middle" text-anchor="middle" y="353" x="417">(chatId, tempId, text, media[])</text><line style="fill: none;" marker-end="url(#arrowhead)" stroke="none" stroke-width="2" class="messageLine0" y2="390" x2="741.5" y1="390" x1="91.5"></line><text dy="1em" class="messageText" style="font-size: 16px; font-weight: 400;" alignment-baseline="middle" dominant-baseline="middle" text-anchor="middle" y="405" x="751">Валидация + realId = time-based UUID</text><path style="fill: none;" marker-end="url(#arrowhead)" stroke="none" stroke-width="2" class="messageLine0" d="M 750.5,440 C 810.5,430 810.5,470 750.5,460"></path><text dy="1em" class="messageText" style="font-size: 16px; font-weight: 400;" alignment-baseline="middle" dominant-baseline="middle" text-anchor="middle" y="485" x="418">WS ← ACK {tempId → realId}</text><line marker-end="url(#arrowhead)" style="stroke-dasharray: 3, 3; fill: none;" stroke="none" stroke-width="2" class="messageLine1" y2="520" x2="94.5" y1="520" x1="740.5"></line><text dy="1em" class="messageText" style="font-size: 16px; font-weight: 400;" alignment-baseline="middle" dominant-baseline="middle" text-anchor="middle" y="535" x="884">produce(enrichedEnvelope)</text><line style="fill: none;" marker-end="url(#arrowhead)" stroke="none" stroke-width="2" class="messageLine0" y2="570" x2="1016.5" y1="570" x1="750.5"></line><text dy="1em" class="messageText" style="font-size: 16px; font-weight: 400;" alignment-baseline="middle" dominant-baseline="middle" text-anchor="middle" y="585" x="1119">consume</text><line style="fill: none;" marker-end="url(#arrowhead)" stroke="none" stroke-width="2" class="messageLine0" y2="620" x2="1216.5" y1="620" x1="1021.5"></line><text dy="1em" class="messageText" style="font-size: 16px; font-weight: 400;" alignment-baseline="middle" dominant-baseline="middle" text-anchor="middle" y="680" x="1344">getActiveEdges(chatId)</text><line style="fill: none;" marker-end="url(#arrowhead)" stroke="none" stroke-width="2" class="messageLine0" y2="715" x2="1461.5" y1="715" x1="1225.5"></line><text dy="1em" class="messageText" style="font-size: 16px; font-weight: 400;" alignment-baseline="middle" dominant-baseline="middle" text-anchor="middle" y="730" x="1347">[edgeId1, edgeId2, …]</text><line marker-end="url(#arrowhead)" style="stroke-dasharray: 3, 3; fill: none;" stroke="none" stroke-width="2" class="messageLine1" y2="765" x2="1228.5" y1="765" x1="1464.5"></line><text dy="1em" class="messageText" style="font-size: 16px; font-weight: 400;" alignment-baseline="middle" dominant-baseline="middle" text-anchor="middle" y="825" x="1689">PUBLISH edge:{edgeId}:messages:in</text><line style="fill: none;" marker-end="url(#arrowhead)" stroke="none" stroke-width="2" class="messageLine0" y2="860" x2="2151.5" y1="860" x1="1225.5"></line><text dy="1em" class="messageText" style="font-size: 16px; font-weight: 400;" alignment-baseline="middle" dominant-baseline="middle" text-anchor="middle" y="930" x="1462">saveMessage()</text><text dy="1em" class="messageText" style="font-size: 16px; font-weight: 400;" alignment-baseline="middle" dominant-baseline="middle" text-anchor="middle" y="948" x="1462">→ Cassandra + Elasticsearch</text><line style="fill: none;" marker-end="url(#arrowhead)" stroke="none" stroke-width="2" class="messageLine0" y2="985" x2="1699" y1="985" x1="1225.5"></line><text dy="1em" class="messageText" style="font-size: 16px; font-weight: 400;" alignment-baseline="middle" dominant-baseline="middle" text-anchor="middle" y="1045" x="1585">sendPush()</text><text dy="1em" class="messageText" style="font-size: 16px; font-weight: 400;" alignment-baseline="middle" dominant-baseline="middle" text-anchor="middle" y="1063" x="1585">→ FCM очередь</text><line style="fill: none;" marker-end="url(#arrowhead)" stroke="none" stroke-width="2" class="messageLine0" y2="1100" x2="1944" y1="1100" x1="1225.5"></line><text dy="1em" class="messageText" style="font-size: 16px; font-weight: 400;" alignment-baseline="middle" dominant-baseline="middle" text-anchor="middle" y="1125" x="2344">сообщение на канал edge:*:messages:in</text><line style="fill: none;" marker-end="url(#arrowhead)" stroke="none" stroke-width="2" class="messageLine0" y2="1160" x2="2530.5" y1="1160" x1="2156.5"></line><text dy="1em" class="messageText" style="font-size: 16px; font-weight: 400;" alignment-baseline="middle" dominant-baseline="middle" text-anchor="middle" y="1175" x="2540">SessionManager.getChatSessions(chatId)</text><path style="fill: none;" marker-end="url(#arrowhead)" stroke="none" stroke-width="2" class="messageLine0" d="M 2539.5,1210 C 2599.5,1200 2599.5,1240 2539.5,1230"></path><text dy="1em" class="messageText" style="font-size: 16px; font-weight: 400;" alignment-baseline="middle" dominant-baseline="middle" text-anchor="middle" y="1431" x="2660">WS → MessageEnvelope</text><text dy="1em" class="messageText" style="font-size: 16px; font-weight: 400;" alignment-baseline="middle" dominant-baseline="middle" text-anchor="middle" y="1449" x="2660">(realId, text, media[])</text><line marker-end="url(#arrowhead)" style="stroke-dasharray: 3, 3; fill: none;" stroke="none" stroke-width="2" class="messageLine1" y2="1486" x2="2780.5" y1="1486" x1="2539.5"></line><text y="-25" x="1335.25">Отправка сообщения — полная последовательность</text></svg>